/* XPM */
static char * pikaFace_xpm[] = {
"50 50 10 1",
" 	c #FFFFFF",
".	c #000000",
"+	c #303030",
"@	c #F8A828",
"#	c #885038",
"$	c #E07840",
"%	c #C05030",
"&	c #E8E8F8",
"*	c #C85838",
"=	c #903818",
"                                                  ",
"                                                  ",
"                                                  ",
"                                                  ",
"                                                  ",
"                                                  ",
"                                                  ",
"                                                  ",
"         ......                    ......         ",
"         ......                    ......         ",
"         ..++++..                ..++++..         ",
"         ..++++..                ..++++..         ",
"         ..++++@@..            ..@@++++..         ",
"         ..++++@@..            ..@@++++..         ",
"           ..@@@@@@..########..@@@@@@..           ",
"           ..@@@@@@..########..@@@@@@..           ",
"           ..$$@@@@%%$$@@@@$$%%@@@@$$..           ",
"           ..$$@@@@%%$$@@@@$$%%@@@@$$..           ",
"             ..$$@@@@@@@@@@@@@@@@@@..             ",
"             ..$$@@@@@@@@@@@@@@@@@@..             ",
"               ++$$@@@@@@@@@@@@$$++               ",
"               ++$$@@@@@@@@@@@@$$++               ",
"             ..@@@@@@@@@@@@@@@@@@@@..             ",
"             ..@@@@@@@@@@@@@@@@@@@@..             ",
"         ++++..@@@@&&@@@@@@@@&&@@@@..             ",
"         ++++..@@@@&&@@@@@@@@&&@@@@..             ",
"         ..%%..**@@..@@@@@@@@..@@**..             ",
"         ..%%..**@@..@@@@@@@@..@@**..             ",
"         ##++%%==**@@@@%%%%@@@@**==               ",
"         ##++%%==**@@@@%%%%@@@@**==               ",
"         ++%%%%++..++$$$$$$$$++..++               ",
"         ++%%%%++..++$$$$$$$$++..++               ",
"           ++%%##$$##++++++++##$$####             ",
"           ++%%##$$##++++++++##$$####             ",
"             ##..$$@@##$$$$##@@$$..##             ",
"             ##..$$@@##$$$$##@@$$..##             ",
"             ##$$....$$$$$$$$....$$##             ",
"             ##$$....$$$$$$$$....$$##             ",
"               ..$$$$$$$$$$$$$$$$##               ",
"               ..$$$$$$$$$$$$$$$$##               ",
"                 ....++++++++$$%%..               ",
"                 ....++++++++$$%%..               ",
"                             ....                 ",
"                             ....                 ",
"                                                  ",
"                                                  ",
"                                                  ",
"                                                  ",
"                                                  ",
"                                                  "};
